<svg xmlns="http://www.w3.org/2000/svg" width="42.804" height="33.444" viewBox="0 0 42.804 33.444">
  <path id="Icon_awesome-exchange-alt" data-name="Icon awesome-exchange-alt" d="M0,13.3V11.964A2.006,2.006,0,0,1,2.006,9.957H32.1V5.944a2.008,2.008,0,0,1,3.425-1.419l6.688,6.688a2.007,2.007,0,0,1,0,2.838l-6.688,6.688A2.008,2.008,0,0,1,32.1,19.321V15.308H2.006A2.006,2.006,0,0,1,0,13.3ZM40.8,26.009H10.7V22a2.008,2.008,0,0,0-3.425-1.419L.588,27.265a2.007,2.007,0,0,0,0,2.838l6.688,6.688A2.008,2.008,0,0,0,10.7,35.372V31.359H40.8A2.006,2.006,0,0,0,42.8,29.353V28.015A2.006,2.006,0,0,0,40.8,26.009Z" transform="translate(0 -3.936)" fill="#fff"/>
</svg>
