<svg xmlns="http://www.w3.org/2000/svg" width="63.708" height="63.708" viewBox="0 0 63.708 63.708">
  <g id="avalanche-avax-logo" transform="translate(0.5)">
    <rect id="Rectangle_17" data-name="Rectangle 17" width="33.189" height="39.207" transform="matrix(0.883, 0.469, -0.469, 0.883, 31.09, 9.797)" fill="#000" stroke="#000" stroke-width="2"/>
    <path id="Path_4" data-name="Path 4" d="M62.208,31.854A30.854,30.854,0,1,1,31.354,1,30.854,30.854,0,0,1,62.208,31.854Zm-39.6,12.278H16.623a4.808,4.808,0,0,1-2.259-.242,1.522,1.522,0,0,1-.69-1.19c-.023-.447.288-.993.91-2.084l14.785-26.06c.629-1.107.947-1.66,1.349-1.865a1.525,1.525,0,0,1,1.38,0c.4.2.72.758,1.349,1.865l3.039,5.306.015.027a9.952,9.952,0,0,1,1.174,2.421,4.5,4.5,0,0,1,0,2.107,9.989,9.989,0,0,1-1.182,2.448L28.727,40.592l-.02.035A9.848,9.848,0,0,1,27.2,42.889a4.521,4.521,0,0,1-1.842,1.069A10.834,10.834,0,0,1,22.611,44.132Zm15.121,0h8.58a4.773,4.773,0,0,0,2.282-.25,1.517,1.517,0,0,0,.69-1.2c.022-.433-.282-.957-.878-1.985l-.062-.107-4.3-7.352L44,33.158c-.6-1.021-.909-1.537-1.3-1.736a1.509,1.509,0,0,0-1.372,0c-.394.2-.712.743-1.342,1.827L35.7,40.6l-.015.025c-.627,1.082-.94,1.623-.918,2.067a1.535,1.535,0,0,0,.69,1.2A4.848,4.848,0,0,0,37.732,44.132Z" fill="#fff" stroke="transparent" stroke-width="2" fill-rule="evenodd"/>
  </g>
</svg>
