<svg xmlns="http://www.w3.org/2000/svg" width="68.551" height="68.551" viewBox="0 0 68.551 68.551">
  <g id="Icon_ionic-ios-close-circle-outline" data-name="Icon ionic-ios-close-circle-outline" transform="translate(-3.375 -3.375)">
    <path id="Path_30" data-name="Path 30" d="M37.987,34.27,29.3,25.586,37.987,16.9a2.633,2.633,0,0,0-3.724-3.724l-8.684,8.684-8.684-8.684a2.519,2.519,0,0,0-3.724,0,2.544,2.544,0,0,0,0,3.724l8.684,8.684L13.17,34.27a2.546,2.546,0,0,0,0,3.724,2.616,2.616,0,0,0,3.724,0l8.684-8.684,8.684,8.684a2.646,2.646,0,0,0,3.724,0A2.616,2.616,0,0,0,37.987,34.27Z" transform="translate(12.072 12.065)" fill="#6e6e6e"/>
    <path id="Path_31" data-name="Path 31" d="M37.65,7.989A29.666,29.666,0,0,1,58.628,58.628,29.666,29.666,0,0,1,16.673,16.673,29.465,29.465,0,0,1,37.65,7.989m0-4.614A34.275,34.275,0,1,0,71.926,37.65,34.27,34.27,0,0,0,37.65,3.375Z" fill="#6e6e6e"/>
  </g>
</svg>
