<?xml version="1.0" encoding="UTF-8"?>
<svg id="Layer_1" xmlns="http://www.w3.org/2000/svg" xmlns:xlink="http://www.w3.org/1999/xlink" viewBox="0 0 1200 1200">
  <defs>
    <style>
      .cls-1 {
        fill: #fff;
      }

      .cls-2 {
        fill: none;
      }

      .cls-3 {
        clip-path: url(#clippath);
      }
    </style>
    <clipPath id="clippath">
      <rect class="cls-2" x="66.69" y="43.12" width="1066.62" height="1113.76"/>
    </clipPath>
  </defs>
  <g class="cls-3">
    <path class="cls-1" d="M66.69,560.27c0-155.48,49.33-280.37,148.03-374.57,98.7-94.2,225.74-141.28,381.27-141.28s366.95-17.38,463.4,75.33c96.46,92.75,69.65,278.3,72.69,429.32v96.41c0,154.03-49,277.79-146.91,371.25-97.95,93.46-226.21,140.16-384.69,140.16s-285.23-46.33-384.64-139.08c-99.45-92.66-149.15-219-149.15-379.02v-78.51Z"/>
  </g>
  <g>
    <path class="cls-1" d="M494.32,783.06c0-15.98-.19-31.08.06-46.18.2-11.61-.33-23.45,1.7-34.79,11.54-64.48,72.58-105.18,136.79-91.83,47.87,9.96,86.45,54.38,88.63,102.97.96,21.41.7,42.88.66,64.32,0,4.55,1.68,6.13,5.84,6.5,7.92.71,15.82,1.65,23.72,2.52,9.22,1.02,18.44,2.07,27.25,3.06.99-10.87.89-21.2,2.98-31.06,13.15-62.01,67.91-99.81,130.73-90.74,50.12,7.24,92.81,54.56,94.37,105.05.57,18.37.22,36.76.38,55.15.11,11.79-1.57,9.03,9.57,12.43,14.16,4.32,28.41,8.35,42.81,12.56.93-2.04,1.73-3.68,2.43-5.35,24.04-57.04,35.74-116.83,37.26-178.42,1.24-50.22.1-100.5.38-150.75.35-63.69,3.54-127.41-1.36-191.06-2.35-30.51-7.02-60.62-15.98-89.96-17.6-57.66-52.56-99.95-108.87-123.65-30.6-12.88-62.55-20.39-95.21-25.27-37.77-5.65-75.87-7.91-113.99-8.18-54.72-.39-109.45.48-164.18.75-42.28.21-84.2,3.68-125.72,12.08-85.41,17.27-160.96,54.17-225.44,113.02-94.35,86.12-138.23,195.35-145.12,320.93-1.84,33.61-1.09,67.37-1.28,101.06-.17,31.84,1.57,63.56,5.75,95.18,4.88,36.85,13.56,72.71,26.25,107.6,3.17,8.7,7,17.16,10.47,25.59,21.76-6.52,42.55-12.75,63.56-19.05,0-19.14-.12-37.92.07-56.7.06-6.31.4-12.69,1.44-18.9,10.33-61.88,67.42-103.22,129.93-94.25,50.86,7.3,91.9,51.11,95.84,102.33.49,6.43.89,12.88,1.36,19.64,19.09-2.21,37.69-4.37,56.9-6.6ZM682.9,838.94c10.91,1.13,20.97,2.48,31.06,3.12,6.69.42,8.5,3.13,8.48,9.84-.25,83.54-.16,167.08-.16,250.62,0,2.8,0,5.61,0,10.11,19.92-4.88,38.7-9.48,57.58-14.1v-8.3c0-81.91,0-163.81,0-245.72,0-15.58,0-15.49-15.83-16.98-26.59-2.51-53.12-5.97-79.77-7.53-30.33-1.78-60.76-2.01-91.15-2.73-11.97-.28-23.95-.05-36.63-.05,0-9.74,0-19.49,0-29.24,0-9.37,0-9.67,9.15-9.63,32.46.15,64.91.54,97.37.81,6.46.05,12.91,0,19.9,0,0-1.44.02-2.83,0-4.21-.3-21.02.62-42.14-1.18-63.03-3.19-37.01-38.64-71.22-85.32-64-38.74,5.99-62.93,40.39-62.78,75.38.58,129.09.23,258.17.23,387.26,0,1.43.14,2.88-.02,4.29-.45,3.77,1.41,5,4.91,5.17,14.87.75,29.75,2.56,44.59,2.29,30.37-.56,60.71-2.16,91.06-3.45,8.51-.36,8.51-.55,8.51-8.98,0-87.42,0-174.84,0-262.26,0-2.59,0-5.18,0-8.68ZM271.08,861.84c0-11.38.38-21.98-.15-32.53-.3-6,1.59-8.47,7.53-9.64,34.36-6.79,68.62-14.05,102.96-20.93,16.32-3.27,16.36-3.04,16.02-19.69-.81-39.69-32.34-71.81-71.91-73.25-40.84-1.49-76.94,31.28-77.09,70.75-.28,72.31-.12,144.63.07,216.95,0,2.57,1.68,5.83,3.63,7.58,28.08,25.19,58.85,46.6,92.46,63.7,16.97,8.64,34.54,16.1,53.13,24.69v-232.96c13.22-1.78,25.8-3.48,39.19-5.29v250.61c19.22,4.27,37.94,8.43,57.06,12.67v-291.66c-75.27,7.22-149.05,20.87-222.9,38.99ZM967.27,826.68c.31-.34.55-.48.55-.63-.25-19.76,1.8-39.9-1.28-59.21-6.38-40.05-41.93-65.32-83.08-60.43-38.49,4.58-64.53,39.14-64.33,74.57.54,98.25.19,196.51.19,294.77,0,2.39,0,4.77,0,7.85,2.52-.86,4.23-1.34,5.86-2.02,51.74-21.71,97.83-52.01,138.44-90.73,3.37-3.22,4.82-6.45,4.79-11.15-.2-27.78-.1-55.56-.1-83.34,0-2.34,0-4.69,0-7.97,12.87,3.11,24.56,5.8,36.13,8.94,1.35.37,2.8,3.26,2.86,5.02.29,8.98.14,17.97.14,26.96,0,3.5,0,7,0,10.5.69.2,1.38.4,2.07.6,11.04-16.9,22.07-33.8,33.26-50.94-2.02-.97-2.72-1.42-3.49-1.66-60.26-18.27-121.24-33.68-183.11-45.47-14.49-2.76-14.53-2.53-14.53-17.01,0-8.26,0-16.52,0-25.89,22.03,4.49,42.77,8.51,63.42,12.99,20.83,4.52,41.56,9.5,62.21,14.25ZM208.33,956.81v-78.3c-15.29,4.61-29.92,9.03-45.16,13.63,13.17,23.34,27.79,44.35,45.16,64.67Z"/>
    <path d="M494.32,783.06c-19.21,2.23-37.81,4.38-56.9,6.6-.46-6.77-.86-13.21-1.36-19.64-3.93-51.22-44.97-95.03-95.84-102.33-62.51-8.97-119.59,32.37-129.93,94.25-1.04,6.21-1.38,12.59-1.44,18.9-.18,18.78-.07,37.56-.07,56.7-21,6.29-41.8,12.53-63.56,19.05-3.47-8.43-7.31-16.89-10.47-25.59-12.69-34.89-21.37-70.75-26.25-107.6-4.19-31.62-5.93-63.34-5.75-95.18.18-33.69-.57-67.45,1.28-101.06,6.89-125.57,50.77-234.81,145.12-320.93,64.47-58.85,140.02-95.75,225.44-113.02,41.52-8.4,83.44-11.87,125.72-12.08,54.73-.27,109.46-1.14,164.18-.75,38.12.27,76.21,2.53,113.99,8.18,32.66,4.88,64.61,12.4,95.21,25.27,56.31,23.69,91.27,65.98,108.87,123.65,8.96,29.34,13.63,59.46,15.98,89.96,4.9,63.65,1.71,127.36,1.36,191.06-.28,50.25.86,100.53-.38,150.75-1.52,61.59-13.22,121.38-37.26,178.42-.7,1.67-1.5,3.3-2.43,5.35-14.39-4.21-28.64-8.24-42.81-12.56-11.14-3.4-9.46-.63-9.57-12.43-.17-18.38.18-36.78-.38-55.15-1.56-50.49-44.25-97.81-94.37-105.05-62.82-9.07-117.59,28.73-130.73,90.74-2.09,9.87-2,20.2-2.98,31.06-8.81-.99-18.03-2.04-27.25-3.06-7.9-.87-15.8-1.82-23.72-2.52-4.17-.37-5.85-1.95-5.84-6.5.04-21.44.3-42.91-.66-64.32-2.19-48.59-40.76-93.01-88.63-102.97-64.21-13.36-125.25,27.34-136.79,91.83-2.03,11.34-1.5,23.18-1.7,34.79-.26,15.09-.06,30.2-.06,46.18ZM324.77,456.82c-48.54-.13-88.27,39.32-89.29,86.96-.97,44.93,34.94,90.29,88.67,91.11,48.43.74,89.59-40.46,89.68-88.95.09-49.01-39.85-88.98-89.05-89.12ZM515.12,485.33c0,47.47,38.11,85.73,85.41,85.76,47.74.03,86.32-38.24,86.36-85.66.04-47.64-37.96-85.46-85.04-86.3-47.6-.85-88.08,39.4-86.73,86.2ZM987.79,547.46c-.09-47.21-37.68-84.66-84.85-84.55-46.73.11-84.45,37.64-84.77,84.33-.32,46.34,38.31,85.12,84.86,85.18,46.77.06,84.85-38.11,84.77-84.96Z"/>
    <path d="M682.9,838.94c0,3.51,0,6.09,0,8.68,0,87.42,0,174.84,0,262.26,0,8.43,0,8.62-8.51,8.98-30.35,1.29-60.7,2.89-91.06,3.45-14.84.27-29.72-1.54-44.59-2.29-3.51-.18-5.36-1.4-4.91-5.17.17-1.41.02-2.86.02-4.29,0-129.09.35-258.18-.23-387.26-.16-34.99,24.03-69.39,62.78-75.38,46.68-7.22,82.13,26.99,85.32,64,1.8,20.89.88,42.01,1.18,63.03.02,1.38,0,2.77,0,4.21-6.99,0-13.45.05-19.9,0-32.46-.27-64.91-.66-97.37-.81-9.14-.04-9.15.26-9.15,9.63,0,9.75,0,19.5,0,29.24,12.68,0,24.66-.24,36.63.05,30.39.72,60.82.95,91.15,2.73,26.65,1.56,53.18,5.02,79.77,7.53,15.82,1.5,15.83,1.4,15.83,16.98,0,81.91,0,163.81,0,245.72v8.3c-18.88,4.62-37.66,9.22-57.58,14.1,0-4.5,0-7.31,0-10.11,0-83.54-.09-167.08.16-250.62.02-6.71-1.79-9.42-8.48-9.84-10.1-.64-20.15-1.99-31.06-3.12Z"/>
    <path d="M271.08,861.84c73.85-18.13,147.64-31.77,222.9-38.99v291.66c-19.11-4.24-37.84-8.4-57.06-12.67v-250.61c-13.4,1.81-25.97,3.51-39.19,5.29v232.96c-18.59-8.59-36.16-16.06-53.13-24.69-33.61-17.11-64.38-38.52-92.46-63.7-1.96-1.75-3.62-5.02-3.63-7.58-.19-72.32-.34-144.63-.07-216.95.15-39.47,36.25-72.24,77.09-70.75,39.57,1.44,71.11,33.56,71.91,73.25.34,16.65.29,16.43-16.02,19.69-34.34,6.88-68.61,14.14-102.96,20.93-5.94,1.17-7.83,3.65-7.53,9.64.52,10.55.15,21.15.15,32.53Z"/>
    <path d="M967.27,826.68c-20.65-4.75-41.38-9.73-62.21-14.25-20.64-4.48-41.39-8.5-63.42-12.99,0,9.37,0,17.63,0,25.89,0,14.48.04,14.25,14.53,17.01,61.87,11.79,122.85,27.2,183.11,45.47.77.23,1.47.69,3.49,1.66-11.19,17.14-22.22,34.04-33.26,50.94-.69-.2-1.38-.4-2.07-.6,0-3.5,0-7,0-10.5,0-8.99.15-17.98-.14-26.96-.06-1.76-1.51-4.65-2.86-5.02-11.57-3.14-23.27-5.83-36.13-8.94,0,3.28,0,5.62,0,7.97,0,27.78-.1,55.56.1,83.34.03,4.7-1.41,7.93-4.79,11.15-40.61,38.71-86.7,69.02-138.44,90.73-1.63.68-3.35,1.16-5.86,2.02,0-3.08,0-5.46,0-7.85,0-98.26.35-196.51-.19-294.77-.2-35.42,25.85-69.99,64.33-74.57,41.15-4.89,76.71,20.38,83.08,60.43,3.08,19.32,1.02,39.45,1.28,59.21,0,.14-.25.29-.55.63Z"/>
    <path d="M208.33,956.81c-17.37-20.32-31.99-41.33-45.16-64.67,15.24-4.6,29.87-9.02,45.16-13.63v78.3Z"/>
    <path class="cls-1" d="M324.77,456.82c49.2.13,89.14,40.11,89.05,89.12-.09,48.49-41.25,89.69-89.68,88.95-53.72-.82-89.63-46.18-88.67-91.11,1.03-47.64,40.75-87.1,89.29-86.96ZM374.3,546.82c0-28.15-21.9-50.16-49.92-50.16-27.92,0-50.21,22.25-50.2,50.09.02,27.99,22.12,50.03,50.15,50.03,28.23,0,49.97-21.73,49.97-49.96Z"/>
    <path class="cls-1" d="M515.12,485.33c-1.36-46.8,39.12-87.05,86.73-86.2,47.09.84,85.08,38.66,85.04,86.3-.04,47.42-38.62,85.68-86.36,85.66-47.3-.03-85.41-38.29-85.41-85.76ZM550.82,485.19c.06,27.92,22.38,50.25,50.17,50.18,27.59-.07,50.25-22.82,50.19-50.41-.06-27.79-22.45-49.99-50.4-49.95-28.05.04-50.02,22.1-49.95,50.18Z"/>
    <path class="cls-1" d="M987.79,547.46c.08,46.85-38,85.03-84.77,84.96-46.54-.06-85.18-38.84-84.86-85.18.32-46.7,38.04-84.22,84.77-84.33,47.18-.11,84.77,37.35,84.85,84.55ZM902.34,497.76c-27.97-.05-50.24,21.88-50.59,49.82-.33,27.48,22.35,50.33,50.05,50.42,27.84.1,50.34-22.09,50.59-49.89.24-27.63-22.3-50.3-50.05-50.35Z"/>
    <path d="M374.3,546.82c0,28.23-21.73,49.96-49.97,49.96-28.04,0-50.14-22.05-50.15-50.03-.02-27.84,22.28-50.1,50.2-50.09,28.02,0,49.92,22.01,49.92,50.16Z"/>
    <path d="M550.82,485.19c-.06-28.07,21.91-50.14,49.95-50.18,27.94-.04,50.34,22.16,50.4,49.95.06,27.59-22.59,50.34-50.19,50.41-27.78.07-50.1-22.26-50.17-50.18Z"/>
    <path d="M902.34,497.76c27.76.05,50.3,22.72,50.05,50.35-.25,27.8-22.75,49.99-50.59,49.89-27.71-.1-50.39-22.94-50.05-50.42.34-27.94,22.61-49.87,50.59-49.82Z"/>
  </g>
</svg>